<svg width="33" height="32" viewBox="0 0 33 32" fill="none" xmlns="http://www.w3.org/2000/svg">
<path d="M1 17.9608C1 16.7016 1.34824 14.2059 2.73611 13.4412C4.49512 12.4721 6 13.1006 6 15.316C6 19.2553 5.6875 23.0842 5.6875 27" stroke="black" stroke-width="2" stroke-linecap="square"/>
<path d="M6 18.6667C6.32778 15.6575 7.09606 13 8.97729 13C10.433 13 9.90769 17.0914 9.90769 19" stroke="black" stroke-width="2" stroke-linecap="square"/>
<path d="M10 17.8834C10.4482 15.4077 10.8466 13.7511 13.3542 13.1505C15.3168 12.6804 16.5832 13.2549 16.7083 15.6829C16.8998 19.3983 17 23.2065 17 27" stroke="black" stroke-width="2" stroke-linecap="square"/>
<path d="M22 3C22 7.40816 22.5 12.0266 22.5 16.5C22.5 19.8129 23 22.6955 23 26" stroke="black" stroke-width="2" stroke-linecap="square"/>
<path d="M22.5 14C22.5 9.28607 28.3167 6.3364 28.9684 12.3909C29.3402 15.8451 26.3604 20 23.7478 20" stroke="black" stroke-width="2" stroke-linecap="square"/>
<path d="M23 20.0057C25.2111 20.0057 26.8788 19.7702 28.2 22.3368C28.9505 23.7948 29.5788 25.4084 31 26" stroke="black" stroke-width="2" stroke-linecap="square"/>
</svg>
